<svg width="86" height="17" viewBox="0 0 86 17" fill="none" xmlns="http://www.w3.org/2000/svg">
<path d="M1.10969 0.811999C1.23769 0.779999 1.46169 0.763999 1.78169 0.763999L3.17369 0.811999C4.38969 0.859999 5.09369 0.915999 5.28569 0.98C6.14969 1.268 6.93369 1.588 7.63769 1.94C8.05369 2.132 8.54969 2.516 9.12569 3.092C9.70169 3.7 10.0937 4.196 10.3017 4.58C10.6217 5.236 10.8377 5.852 10.9497 6.428C11.0777 7.068 11.1417 7.788 11.1417 8.588C11.1417 9.516 11.0457 10.26 10.8537 10.82C10.6457 11.364 10.2377 12.06 9.62969 12.908C9.18169 13.5 8.58169 14.004 7.82969 14.42C7.02969 14.836 5.96569 15.188 4.63769 15.476C3.34169 15.78 2.27769 15.892 1.44569 15.812C1.18969 15.78 1.02969 15.756 0.965688 15.74C0.853688 15.692 0.757688 15.612 0.677688 15.5C0.469688 15.26 0.349688 14.932 0.317688 14.516C0.285688 14.1 0.269688 13.244 0.269688 11.948L0.293688 8.228C0.325688 3.988 0.373688 1.764 0.437688 1.556C0.485688 1.396 0.573688 1.236 0.701688 1.076C0.829688 0.932 0.965688 0.843999 1.10969 0.811999ZM2.11769 8.3C2.13369 11.964 2.16569 13.86 2.21369 13.988C2.26169 14.052 2.74169 13.988 3.65369 13.796C5.73369 13.348 7.07769 12.852 7.68569 12.308C7.86169 12.148 8.13369 11.796 8.50169 11.252C8.83769 10.724 9.04569 10.34 9.12569 10.1C9.23769 9.78 9.29369 9.22 9.29369 8.42C9.29369 7.668 9.22969 7.1 9.10169 6.716C8.89369 6.012 8.72569 5.54 8.59769 5.3C8.48569 5.076 8.22969 4.772 7.82969 4.388C7.44569 4.004 7.16569 3.756 6.98969 3.644C6.66969 3.468 6.34169 3.308 6.00569 3.164L5.76569 3.044C5.71769 3.028 5.66969 3.012 5.62169 2.996C5.58969 2.98 5.55769 2.964 5.52569 2.948L5.38169 2.876C5.26969 2.828 5.04569 2.756 4.70969 2.66C4.37369 2.58 3.88569 2.516 3.24569 2.468H2.81369C2.42969 2.468 2.21369 2.492 2.16569 2.54C2.11769 2.604 2.09369 3.428 2.09369 5.012C2.09369 6.324 2.10169 7.42 2.11769 8.3ZM16.7922 4.46C17.1762 4.364 17.6322 4.316 18.1602 4.316C19.2322 4.316 20.0162 4.444 20.5122 4.7C20.9922 4.956 21.4162 5.268 21.7842 5.636C22.1682 6.068 22.4402 6.492 22.6002 6.908C22.7922 7.468 22.8962 7.868 22.9122 8.108C22.9282 8.412 22.9042 8.764 22.8402 9.164C22.6962 9.788 22.4882 10.196 22.2162 10.388C21.9762 10.58 21.4322 10.74 20.5842 10.868C20.1042 10.916 19.4882 10.94 18.7362 10.94L17.2482 10.916H16.2882C15.3602 10.916 14.8562 10.948 14.7762 11.012C14.7442 11.044 14.7362 11.148 14.7522 11.324C14.8642 11.676 15.0882 12.044 15.4242 12.428C15.8242 12.892 16.1922 13.204 16.5282 13.364C17.0562 13.668 17.4722 13.852 17.7762 13.916C18.2242 13.98 18.7682 14.012 19.4082 14.012H20.7762L21.4722 13.676C21.9042 13.484 22.2242 13.388 22.4322 13.388C22.6722 13.388 22.8722 13.484 23.0322 13.676C23.1602 13.852 23.2242 14.044 23.2242 14.252C23.2242 14.508 23.0402 14.772 22.6722 15.044C22.2882 15.332 21.7922 15.556 21.1842 15.716C20.8322 15.796 20.2722 15.836 19.5042 15.836C18.7362 15.836 18.1362 15.796 17.7042 15.716C16.0242 15.348 14.7442 14.58 13.8642 13.412C13.4322 12.868 13.1522 12.388 13.0242 11.972C12.8962 11.54 12.8322 10.924 12.8322 10.124C12.8322 9.068 12.9442 8.244 13.1682 7.652C13.3922 7.044 13.8002 6.46 14.3922 5.9C15.0802 5.212 15.8802 4.732 16.7922 4.46ZM14.7762 8.708C14.7602 8.772 14.7522 8.852 14.7522 8.948C14.7522 9.092 14.7762 9.18 14.8242 9.212C14.8882 9.292 15.0482 9.324 15.3042 9.308C15.6402 9.244 16.6322 9.204 18.2802 9.188H18.6642C19.8322 9.188 20.5602 9.14 20.8482 9.044C21.0402 8.964 21.1122 8.756 21.0642 8.42V8.324C20.9682 7.428 20.4882 6.748 19.6242 6.284C19.5602 6.236 19.1922 6.188 18.5202 6.14L17.8722 6.116C17.6642 6.116 17.4962 6.132 17.3682 6.164L16.9362 6.332L16.6242 6.452C16.5922 6.452 16.4242 6.556 16.1202 6.764C15.8162 6.956 15.5282 7.244 15.2562 7.628C15.0002 8.012 14.8402 8.372 14.7762 8.708ZM25.1185 4.652C25.2945 4.46 25.4705 4.364 25.6465 4.364C26.0785 4.364 26.4145 4.724 26.6545 5.444L27.0865 6.692C27.2465 7.172 27.3345 7.444 27.3505 7.508C27.3665 7.668 27.4065 7.764 27.4705 7.796C27.5345 7.812 27.5665 7.876 27.5665 7.988C27.5665 8.116 27.8785 8.9 28.5025 10.34C28.7585 10.932 28.9585 11.42 29.1025 11.804C29.2465 12.14 29.3265 12.316 29.3425 12.332C29.3905 12.396 29.4465 12.532 29.5105 12.74C29.5265 12.804 29.5425 12.86 29.5585 12.908C29.5745 12.94 29.5905 12.972 29.6065 13.004L29.6785 13.148C29.7265 13.18 29.7585 13.188 29.7745 13.172L29.8945 13.076L30.0145 12.86L30.1345 12.524L30.5425 11.54L31.1185 10.1C31.3585 9.444 31.5505 8.964 31.6945 8.66C31.7745 8.468 31.8145 8.356 31.8145 8.324L32.0305 7.82C32.5265 6.796 32.7985 6.164 32.8465 5.924C32.9905 5.412 33.1825 5.02 33.4225 4.748C33.5505 4.62 33.7425 4.548 33.9985 4.532C34.2225 4.532 34.4225 4.596 34.5985 4.724C34.6945 4.804 34.7505 4.884 34.7665 4.964C34.7825 5.028 34.7905 5.212 34.7905 5.516C34.7905 5.788 34.7505 6.084 34.6705 6.404C34.5425 6.772 34.3665 7.196 34.1425 7.676L33.6385 8.828C33.5105 9.18 33.4065 9.428 33.3265 9.572L32.8465 10.82C32.6705 11.284 32.4865 11.732 32.2945 12.164L32.0065 12.908C31.6225 13.916 31.2305 14.668 30.8305 15.164C30.6865 15.34 30.5025 15.5 30.2785 15.644C30.0225 15.772 29.8305 15.836 29.7025 15.836C29.1425 15.836 28.6625 15.396 28.2625 14.516L27.9025 13.772C27.8545 13.676 27.8305 13.58 27.8305 13.484C27.8305 13.388 27.7905 13.244 27.7105 13.052C27.3745 12.364 26.8705 11.132 26.1985 9.356C26.1185 9.084 26.0625 8.924 26.0305 8.876C25.9345 8.636 25.8785 8.492 25.8625 8.444L25.7905 8.252C25.5025 7.548 25.2465 6.78 25.0225 5.948C24.9425 5.628 24.9025 5.396 24.9025 5.252C24.9025 5.044 24.9745 4.844 25.1185 4.652ZM45.1446 0.404C45.2246 0.371999 45.3366 0.355999 45.4806 0.355999C45.7206 0.355999 45.9206 0.435999 46.0806 0.595999C46.1766 0.675999 46.2326 0.851999 46.2486 1.124C46.2806 1.428 46.3046 2.276 46.3206 3.668C46.3526 5.22 46.3686 7.644 46.3686 10.94C46.3686 13.26 46.3606 14.564 46.3446 14.852C46.3286 15.284 46.2806 15.54 46.2006 15.62C46.0886 15.748 45.9206 15.82 45.6966 15.836L45.4806 15.86C45.3366 15.86 45.2166 15.836 45.1206 15.788C44.9446 15.724 44.8086 15.636 44.7126 15.524C44.6326 15.412 44.5686 15.212 44.5206 14.924C44.5046 14.732 44.4726 14.628 44.4246 14.612H44.3766C44.3286 14.612 44.2326 14.66 44.0886 14.756C43.8006 14.98 43.4086 15.148 42.9126 15.26C42.4166 15.404 41.9526 15.476 41.5206 15.476C40.6406 15.476 39.7046 15.188 38.7126 14.612C37.8326 14.1 37.2086 13.332 36.8406 12.308C36.6006 11.7 36.4806 10.86 36.4806 9.788C36.4806 9.196 36.5366 8.62 36.6486 8.06C36.7766 7.532 36.9206 7.116 37.0806 6.812C37.2566 6.476 37.5046 6.14 37.8246 5.804C38.7206 4.908 39.8566 4.46 41.2326 4.46C42.3846 4.46 43.3366 4.788 44.0886 5.444C44.3126 5.62 44.4326 5.708 44.4486 5.708C44.4646 5.708 44.4886 5.148 44.5206 4.028C44.5526 2.556 44.5766 1.708 44.5926 1.484C44.6086 1.212 44.6566 0.987999 44.7366 0.811999C44.8646 0.555999 45.0006 0.42 45.1446 0.404ZM38.4006 10.124C38.4006 10.892 38.4806 11.468 38.6406 11.852C38.8006 12.3 39.1046 12.66 39.5526 12.932C40.2086 13.348 40.9126 13.556 41.6646 13.556C42.1126 13.556 42.4886 13.484 42.7926 13.34C43.0646 13.212 43.4006 12.956 43.8006 12.572L44.4246 11.996V11.348C44.4246 10.916 44.3846 10.372 44.3046 9.716C44.2246 9.06 44.1206 8.556 43.9926 8.204C43.9126 7.996 43.7046 7.7 43.3686 7.316C43.0806 6.996 42.7846 6.756 42.4806 6.596C42.1766 6.436 41.7046 6.356 41.0646 6.356C40.6646 6.356 40.3286 6.396 40.0566 6.476C39.7366 6.604 39.4246 6.828 39.1206 7.148C38.8806 7.404 38.7126 7.684 38.6166 7.988C38.5526 8.148 38.5046 8.38 38.4726 8.684C38.4406 8.972 38.4166 9.452 38.4006 10.124ZM52.6428 4.772C52.9948 4.692 53.3388 4.652 53.6748 4.652C53.8348 4.652 54.0748 4.668 54.3948 4.7C55.0028 4.764 55.6028 4.94 56.1948 5.228C56.5628 5.388 56.9468 5.676 57.3468 6.092L57.9468 6.692L57.8988 8.396C57.8828 8.668 57.8748 9.06 57.8748 9.572C57.8748 11.14 58.0108 12.284 58.2828 13.004C58.4588 13.436 58.6508 13.756 58.8588 13.964C59.1628 14.268 59.3148 14.62 59.3148 15.02C59.3148 15.324 59.2028 15.548 58.9788 15.692C58.7868 15.788 58.6188 15.836 58.4748 15.836C58.3788 15.836 58.3068 15.828 58.2588 15.812C58.0508 15.748 57.7868 15.556 57.4668 15.236C57.3068 15.044 57.1148 14.756 56.8908 14.372C56.6508 13.94 56.4988 13.596 56.4348 13.34L56.2428 12.86C56.2268 12.844 56.1708 12.892 56.0748 13.004C55.9148 13.196 55.8028 13.348 55.7388 13.46C55.1788 14.276 54.5708 14.868 53.9148 15.236C53.2588 15.636 52.5548 15.836 51.8028 15.836C50.6828 15.836 49.7548 15.42 49.0188 14.588C48.6348 14.156 48.3868 13.716 48.2748 13.268C48.1308 12.804 48.0588 12.18 48.0588 11.396C48.0588 10.9 48.0748 10.508 48.1068 10.22C48.1228 10.044 48.2108 9.724 48.3708 9.26C48.5948 8.62 48.8428 8.084 49.1148 7.652C49.3708 7.236 49.7468 6.78 50.2428 6.284C51.0428 5.484 51.8428 4.98 52.6428 4.772ZM49.9068 11.732C49.9068 12.052 49.9148 12.252 49.9308 12.332C49.9628 12.524 50.0268 12.7 50.1228 12.86C50.2828 13.196 50.4828 13.46 50.7228 13.652C51.0108 13.86 51.3708 13.964 51.8028 13.964C52.2828 13.964 52.7708 13.78 53.2668 13.412C54.1948 12.74 54.9628 11.34 55.5708 9.212L55.8588 8.228C55.9388 7.908 55.9788 7.636 55.9788 7.412C55.9788 7.284 55.9628 7.172 55.9308 7.076C55.8988 7.044 55.7788 6.964 55.5708 6.836C55.2508 6.692 54.8748 6.572 54.4428 6.476L53.7228 6.332C53.5468 6.396 53.3868 6.436 53.2428 6.452C51.8988 6.804 50.8908 7.828 50.2188 9.524C50.0588 9.908 49.9708 10.172 49.9548 10.316C49.9228 10.572 49.9068 10.916 49.9068 11.348V11.732ZM60.9963 1.412C60.9803 1.268 61.0443 1.092 61.1883 0.883999C61.3323 0.659999 61.5563 0.507999 61.8603 0.427999C61.9083 0.412 61.9883 0.404 62.1003 0.404C62.2763 0.404 62.4283 0.452 62.5563 0.547999C62.6843 0.627999 62.7563 0.731999 62.7723 0.86C62.8523 1.612 62.8923 2.5 62.8923 3.524C62.8923 4.42 62.8683 5.292 62.8203 6.14C62.7883 7.196 62.7723 7.94 62.7723 8.372C62.7723 12.1 62.7643 14.196 62.7483 14.66C62.7163 15.38 62.6603 15.772 62.5803 15.836C62.4843 15.964 62.2923 16.028 62.0043 16.028C61.8443 16.028 61.7163 16.012 61.6203 15.98C61.5083 15.948 61.4203 15.876 61.3563 15.764C61.1163 15.38 60.9963 14.956 60.9963 14.492C60.9963 12.924 61.0203 11.412 61.0683 9.956C61.1003 8.132 61.1163 6.764 61.1163 5.852C61.1163 4.188 61.0763 2.708 60.9963 1.412ZM65.0622 4.22C65.1582 4.172 65.2622 4.148 65.3742 4.148C65.5342 4.148 65.6942 4.204 65.8542 4.316L66.1662 4.532L66.2142 6.644C66.2622 8.116 66.3182 8.948 66.3822 9.14C66.4302 9.332 66.4782 9.596 66.5262 9.932C66.5742 10.38 66.7182 10.86 66.9582 11.372C67.1982 11.868 67.4622 12.252 67.7502 12.524C67.9902 12.748 68.2862 12.948 68.6382 13.124C69.0702 13.316 69.4542 13.412 69.7902 13.412C70.3342 13.412 70.8942 13.124 71.4702 12.548C71.8382 12.18 72.1182 11.78 72.3102 11.348C72.5022 10.868 72.7022 10.188 72.9102 9.308C73.0062 8.924 73.1422 7.892 73.3182 6.212C73.3982 5.588 73.5102 5.156 73.6542 4.916C73.7982 4.676 74.0302 4.556 74.3502 4.556C74.5582 4.556 74.7102 4.58 74.8062 4.628C74.9022 4.676 74.9982 4.78 75.0942 4.94C75.1742 5.084 75.2222 5.396 75.2382 5.876C75.2542 6.196 75.2622 7.684 75.2622 10.34L75.2382 15.428L74.9742 15.644C74.8302 15.772 74.6622 15.844 74.4702 15.86C74.2782 15.86 74.0942 15.796 73.9182 15.668C73.7742 15.54 73.6542 15.324 73.5582 15.02C73.4622 14.7 73.4142 14.372 73.4142 14.036C73.4142 13.636 73.3902 13.428 73.3422 13.412L73.2702 13.46C73.2222 13.476 73.1502 13.532 73.0542 13.628L72.7902 13.868C72.1822 14.492 71.5502 14.908 70.8942 15.116C70.4782 15.244 70.1022 15.308 69.7662 15.308C69.4462 15.308 69.1262 15.26 68.8062 15.164C67.0782 14.668 65.8622 13.516 65.1582 11.708C64.9502 11.148 64.8062 10.548 64.7262 9.908C64.6622 9.284 64.6142 8.332 64.5822 7.052C64.5822 5.82 64.6062 5.076 64.6542 4.82C64.6702 4.564 64.8062 4.364 65.0622 4.22ZM80.3898 4.532C80.9178 4.452 81.4138 4.412 81.8778 4.412C82.4858 4.412 83.0858 4.5 83.6778 4.676C84.1898 4.852 84.6458 5.1 85.0458 5.42C85.2218 5.564 85.3098 5.732 85.3098 5.924C85.3098 6.084 85.2618 6.236 85.1658 6.38C85.0698 6.508 84.9338 6.604 84.7578 6.668C84.6618 6.732 84.5498 6.748 84.4218 6.716C84.3258 6.7 84.0938 6.604 83.7258 6.428C83.3738 6.284 83.1018 6.18 82.9098 6.116C82.8618 6.1 82.7258 6.076 82.5018 6.044C82.2938 5.996 82.0858 5.972 81.8778 5.972C81.6538 5.972 81.3498 6.004 80.9658 6.068C80.8058 6.084 80.6378 6.132 80.4618 6.212C80.0778 6.388 79.8058 6.572 79.6458 6.764C79.4858 6.972 79.4058 7.268 79.4058 7.652C79.4058 7.988 79.4618 8.236 79.5738 8.396C79.9738 8.892 80.8778 9.22 82.2858 9.38C84.0298 9.572 85.1178 10.18 85.5498 11.204C85.6778 11.508 85.7418 11.916 85.7418 12.428C85.7418 12.748 85.7258 13.004 85.6938 13.196C85.6778 13.34 85.6058 13.532 85.4778 13.772C85.1258 14.444 84.5258 14.972 83.6778 15.356C82.8618 15.724 82.0778 15.908 81.3258 15.908C80.5738 15.908 79.9978 15.828 79.5978 15.668C79.1338 15.524 78.6458 15.276 78.1338 14.924C77.3338 14.364 76.9338 13.82 76.9338 13.292C76.9338 13.068 77.0138 12.884 77.1738 12.74C77.3178 12.596 77.5178 12.524 77.7738 12.524C77.9178 12.524 78.0458 12.556 78.1578 12.62C78.2378 12.652 78.4058 12.788 78.6618 13.028C79.4778 13.828 80.2778 14.228 81.0618 14.228C81.5738 14.228 82.0538 14.156 82.5018 14.012C83.0138 13.82 83.3978 13.572 83.6538 13.268C83.8138 13.06 83.8938 12.828 83.8938 12.572C83.8938 12.236 83.8538 11.964 83.7738 11.756C83.6938 11.596 83.5258 11.46 83.2698 11.348C82.9658 11.204 82.6938 11.124 82.4538 11.108C81.4138 10.996 80.6138 10.86 80.0538 10.7C79.5738 10.524 79.1338 10.284 78.7338 9.98C78.3018 9.628 77.9898 9.292 77.7978 8.972C77.6698 8.716 77.6058 8.316 77.6058 7.772C77.6058 7.34 77.6458 6.964 77.7258 6.644C77.7738 6.468 77.9258 6.18 78.1818 5.78C78.3898 5.492 78.7178 5.228 79.1658 4.988C79.6298 4.732 80.0378 4.58 80.3898 4.532Z" fill="#091133"/>
</svg>
