<svg width="143" height="27" viewBox="0 0 143 27" fill="none" xmlns="http://www.w3.org/2000/svg">
<path d="M1.68281 1.52C1.89615 1.46667 2.26948 1.44 2.80281 1.44L5.12281 1.52C7.14948 1.6 8.32281 1.69333 8.64281 1.8C10.0828 2.28 11.3895 2.81333 12.5628 3.4C13.2561 3.72 14.0828 4.36 15.0428 5.32C16.0028 6.33333 16.6561 7.16 17.0028 7.8C17.5361 8.89333 17.8961 9.92 18.0828 10.88C18.2961 11.9467 18.4028 13.1467 18.4028 14.48C18.4028 16.0267 18.2428 17.2667 17.9228 18.2C17.5761 19.1067 16.8961 20.2667 15.8828 21.68C15.1361 22.6667 14.1361 23.5067 12.8828 24.2C11.5495 24.8933 9.77615 25.48 7.56281 25.96C5.40281 26.4667 3.62948 26.6533 2.24281 26.52C1.81615 26.4667 1.54948 26.4267 1.44281 26.4C1.25615 26.32 1.09615 26.1867 0.962813 26C0.616146 25.6 0.416146 25.0533 0.362813 24.36C0.309479 23.6667 0.282813 22.24 0.282813 20.08L0.322813 13.88C0.376146 6.81333 0.456146 3.10667 0.562813 2.76C0.642813 2.49333 0.789479 2.22667 1.00281 1.96C1.21615 1.72 1.44281 1.57333 1.68281 1.52ZM3.36281 14C3.38948 20.1067 3.44281 23.2667 3.52281 23.48C3.60281 23.5867 4.40281 23.48 5.92281 23.16C9.38948 22.4133 11.6295 21.5867 12.6428 20.68C12.9361 20.4133 13.3895 19.8267 14.0028 18.92C14.5628 18.04 14.9095 17.4 15.0428 17C15.2295 16.4667 15.3228 15.5333 15.3228 14.2C15.3228 12.9467 15.2161 12 15.0028 11.36C14.6561 10.1867 14.3761 9.4 14.1628 9C13.9761 8.62667 13.5495 8.12 12.8828 7.48C12.2428 6.84 11.7761 6.42667 11.4828 6.24C10.9495 5.94667 10.4028 5.68 9.84281 5.44L9.44281 5.24C9.36281 5.21333 9.28281 5.18667 9.20281 5.16C9.14948 5.13333 9.09615 5.10667 9.04281 5.08L8.80281 4.96C8.61615 4.88 8.24281 4.76 7.68281 4.6C7.12281 4.46667 6.30948 4.36 5.24281 4.28H4.52281C3.88281 4.28 3.52281 4.32 3.44281 4.4C3.36281 4.50667 3.32281 5.88 3.32281 8.52C3.32281 10.7067 3.33615 12.5333 3.36281 14ZM27.8203 7.6C28.4603 7.44 29.2203 7.36 30.1003 7.36C31.887 7.36 33.1936 7.57333 34.0203 8C34.8203 8.42667 35.527 8.94667 36.1403 9.56C36.7803 10.28 37.2336 10.9867 37.5003 11.68C37.8203 12.6133 37.9936 13.28 38.0203 13.68C38.047 14.1867 38.007 14.7733 37.9003 15.44C37.6603 16.48 37.3136 17.16 36.8603 17.48C36.4603 17.8 35.5536 18.0667 34.1403 18.28C33.3403 18.36 32.3136 18.4 31.0603 18.4L28.5803 18.36H26.9803C25.4336 18.36 24.5936 18.4133 24.4603 18.52C24.407 18.5733 24.3936 18.7467 24.4203 19.04C24.607 19.6267 24.9803 20.24 25.5403 20.88C26.207 21.6533 26.8203 22.1733 27.3803 22.44C28.2603 22.9467 28.9536 23.2533 29.4603 23.36C30.207 23.4667 31.1136 23.52 32.1803 23.52H34.4603L35.6203 22.96C36.3403 22.64 36.8736 22.48 37.2203 22.48C37.6203 22.48 37.9536 22.64 38.2203 22.96C38.4336 23.2533 38.5403 23.5733 38.5403 23.92C38.5403 24.3467 38.2336 24.7867 37.6203 25.24C36.9803 25.72 36.1536 26.0933 35.1403 26.36C34.5536 26.4933 33.6203 26.56 32.3403 26.56C31.0603 26.56 30.0603 26.4933 29.3403 26.36C26.5403 25.7467 24.407 24.4667 22.9403 22.52C22.2203 21.6133 21.7536 20.8133 21.5403 20.12C21.327 19.4 21.2203 18.3733 21.2203 17.04C21.2203 15.28 21.407 13.9067 21.7803 12.92C22.1536 11.9067 22.8336 10.9333 23.8203 10C24.967 8.85333 26.3003 8.05333 27.8203 7.6ZM24.4603 14.68C24.4336 14.7867 24.4203 14.92 24.4203 15.08C24.4203 15.32 24.4603 15.4667 24.5403 15.52C24.647 15.6533 24.9136 15.7067 25.3403 15.68C25.9003 15.5733 27.5536 15.5067 30.3003 15.48H30.9403C32.887 15.48 34.1003 15.4 34.5803 15.24C34.9003 15.1067 35.0203 14.76 34.9403 14.2V14.04C34.7803 12.5467 33.9803 11.4133 32.5403 10.64C32.4336 10.56 31.8203 10.48 30.7003 10.4L29.6203 10.36C29.2736 10.36 28.9936 10.3867 28.7803 10.44L28.0603 10.72L27.5403 10.92C27.487 10.92 27.207 11.0933 26.7003 11.44C26.1936 11.76 25.7136 12.24 25.2603 12.88C24.8336 13.52 24.567 14.12 24.4603 14.68ZM41.6975 7.92C41.9908 7.6 42.2842 7.44 42.5775 7.44C43.2975 7.44 43.8575 8.04 44.2575 9.24L44.9775 11.32C45.2442 12.12 45.3908 12.5733 45.4175 12.68C45.4442 12.9467 45.5108 13.1067 45.6175 13.16C45.7242 13.1867 45.7775 13.2933 45.7775 13.48C45.7775 13.6933 46.2975 15 47.3375 17.4C47.7642 18.3867 48.0975 19.2 48.3375 19.84C48.5775 20.4 48.7108 20.6933 48.7375 20.72C48.8175 20.8267 48.9108 21.0533 49.0175 21.4C49.0442 21.5067 49.0708 21.6 49.0975 21.68C49.1242 21.7333 49.1508 21.7867 49.1775 21.84L49.2975 22.08C49.3775 22.1333 49.4308 22.1467 49.4575 22.12L49.6575 21.96L49.8575 21.6L50.0575 21.04L50.7375 19.4L51.6975 17C52.0975 15.9067 52.4175 15.1067 52.6575 14.6C52.7908 14.28 52.8575 14.0933 52.8575 14.04L53.2175 13.2C54.0442 11.4933 54.4975 10.44 54.5775 10.04C54.8175 9.18667 55.1375 8.53333 55.5375 8.08C55.7508 7.86667 56.0708 7.74667 56.4975 7.72C56.8708 7.72 57.2042 7.82667 57.4975 8.04C57.6575 8.17333 57.7508 8.30667 57.7775 8.44C57.8042 8.54667 57.8175 8.85333 57.8175 9.36C57.8175 9.81333 57.7508 10.3067 57.6175 10.84C57.4042 11.4533 57.1108 12.16 56.7375 12.96L55.8975 14.88C55.6842 15.4667 55.5108 15.88 55.3775 16.12L54.5775 18.2C54.2842 18.9733 53.9775 19.72 53.6575 20.44L53.1775 21.68C52.5375 23.36 51.8842 24.6133 51.2175 25.44C50.9775 25.7333 50.6708 26 50.2975 26.24C49.8708 26.4533 49.5508 26.56 49.3375 26.56C48.4042 26.56 47.6042 25.8267 46.9375 24.36L46.3375 23.12C46.2575 22.96 46.2175 22.8 46.2175 22.64C46.2175 22.48 46.1508 22.24 46.0175 21.92C45.4575 20.7733 44.6175 18.72 43.4975 15.76C43.3642 15.3067 43.2708 15.04 43.2175 14.96C43.0575 14.56 42.9642 14.32 42.9375 14.24L42.8175 13.92C42.3375 12.7467 41.9108 11.4667 41.5375 10.08C41.4042 9.54667 41.3375 9.16 41.3375 8.92C41.3375 8.57333 41.4575 8.24 41.6975 7.92ZM75.0744 0.84C75.2077 0.786665 75.3944 0.759998 75.6344 0.759998C76.0344 0.759998 76.3677 0.893332 76.6344 1.16C76.7944 1.29333 76.8877 1.58666 76.9144 2.04C76.9677 2.54667 77.0077 3.96 77.0344 6.28C77.0877 8.86667 77.1144 12.9067 77.1144 18.4C77.1144 22.2667 77.101 24.44 77.0744 24.92C77.0477 25.64 76.9677 26.0667 76.8344 26.2C76.6477 26.4133 76.3677 26.5333 75.9944 26.56L75.6344 26.6C75.3944 26.6 75.1944 26.56 75.0344 26.48C74.741 26.3733 74.5144 26.2267 74.3544 26.04C74.221 25.8533 74.1144 25.52 74.0344 25.04C74.0077 24.72 73.9544 24.5467 73.8744 24.52H73.7944C73.7144 24.52 73.5544 24.6 73.3144 24.76C72.8344 25.1333 72.181 25.4133 71.3544 25.6C70.5277 25.84 69.7544 25.96 69.0344 25.96C67.5677 25.96 66.0077 25.48 64.3544 24.52C62.8877 23.6667 61.8477 22.3867 61.2344 20.68C60.8344 19.6667 60.6344 18.2667 60.6344 16.48C60.6344 15.4933 60.7277 14.5333 60.9144 13.6C61.1277 12.72 61.3677 12.0267 61.6344 11.52C61.9277 10.96 62.341 10.4 62.8744 9.84C64.3677 8.34667 66.261 7.6 68.5544 7.6C70.4744 7.6 72.061 8.14667 73.3144 9.24C73.6877 9.53333 73.8877 9.68 73.9144 9.68C73.941 9.68 73.981 8.74667 74.0344 6.88C74.0877 4.42667 74.1277 3.01333 74.1544 2.64C74.181 2.18667 74.261 1.81333 74.3944 1.52C74.6077 1.09333 74.8344 0.866666 75.0744 0.84ZM63.8344 17.04C63.8344 18.32 63.9677 19.28 64.2344 19.92C64.501 20.6667 65.0077 21.2667 65.7544 21.72C66.8477 22.4133 68.021 22.76 69.2744 22.76C70.021 22.76 70.6477 22.64 71.1544 22.4C71.6077 22.1867 72.1677 21.76 72.8344 21.12L73.8744 20.16V19.08C73.8744 18.36 73.8077 17.4533 73.6744 16.36C73.541 15.2667 73.3677 14.4267 73.1544 13.84C73.021 13.4933 72.6744 13 72.1144 12.36C71.6344 11.8267 71.141 11.4267 70.6344 11.16C70.1277 10.8933 69.341 10.76 68.2744 10.76C67.6077 10.76 67.0477 10.8267 66.5944 10.96C66.061 11.1733 65.541 11.5467 65.0344 12.08C64.6344 12.5067 64.3544 12.9733 64.1944 13.48C64.0877 13.7467 64.0077 14.1333 63.9544 14.64C63.901 15.12 63.861 15.92 63.8344 17.04ZM87.5713 8.12C88.1579 7.98667 88.7313 7.92 89.2913 7.92C89.5579 7.92 89.9579 7.94667 90.4913 8C91.5046 8.10667 92.5046 8.4 93.4913 8.88C94.1046 9.14667 94.7446 9.62667 95.4113 10.32L96.4113 11.32L96.3313 14.16C96.3046 14.6133 96.2913 15.2667 96.2913 16.12C96.2913 18.7333 96.5179 20.64 96.9713 21.84C97.2646 22.56 97.5846 23.0933 97.9313 23.44C98.4379 23.9467 98.6913 24.5333 98.6913 25.2C98.6913 25.7067 98.5046 26.08 98.1313 26.32C97.8113 26.48 97.5313 26.56 97.2913 26.56C97.1313 26.56 97.0113 26.5467 96.9313 26.52C96.5846 26.4133 96.1446 26.0933 95.6113 25.56C95.3446 25.24 95.0246 24.76 94.6513 24.12C94.2513 23.4 93.9979 22.8267 93.8913 22.4L93.5713 21.6C93.5446 21.5733 93.4513 21.6533 93.2913 21.84C93.0246 22.16 92.8379 22.4133 92.7313 22.6C91.7979 23.96 90.7846 24.9467 89.6913 25.56C88.5979 26.2267 87.4246 26.56 86.1713 26.56C84.3046 26.56 82.7579 25.8667 81.5313 24.48C80.8913 23.76 80.4779 23.0267 80.2913 22.28C80.0513 21.5067 79.9313 20.4667 79.9313 19.16C79.9313 18.3333 79.9579 17.68 80.0113 17.2C80.0379 16.9067 80.1846 16.3733 80.4513 15.6C80.8246 14.5333 81.2379 13.64 81.6913 12.92C82.1179 12.2267 82.7446 11.4667 83.5713 10.64C84.9046 9.30667 86.2379 8.46667 87.5713 8.12ZM83.0113 19.72C83.0113 20.2533 83.0246 20.5867 83.0513 20.72C83.1046 21.04 83.2113 21.3333 83.3713 21.6C83.6379 22.16 83.9713 22.6 84.3713 22.92C84.8513 23.2667 85.4513 23.44 86.1713 23.44C86.9713 23.44 87.7846 23.1333 88.6113 22.52C90.1579 21.4 91.4379 19.0667 92.4513 15.52L92.9313 13.88C93.0646 13.3467 93.1313 12.8933 93.1313 12.52C93.1313 12.3067 93.1046 12.12 93.0513 11.96C92.9979 11.9067 92.7979 11.7733 92.4513 11.56C91.9179 11.32 91.2913 11.12 90.5713 10.96L89.3713 10.72C89.0779 10.8267 88.8113 10.8933 88.5713 10.92C86.3313 11.5067 84.6513 13.2133 83.5312 16.04C83.2646 16.68 83.1179 17.12 83.0913 17.36C83.0379 17.7867 83.0113 18.36 83.0113 19.08V19.72ZM101.494 2.52C101.467 2.28 101.574 1.98667 101.814 1.64C102.054 1.26667 102.427 1.01333 102.934 0.879999C103.014 0.853333 103.147 0.84 103.334 0.84C103.627 0.84 103.88 0.919999 104.094 1.08C104.307 1.21333 104.427 1.38667 104.454 1.6C104.587 2.85333 104.654 4.33333 104.654 6.04C104.654 7.53333 104.614 8.98667 104.534 10.4C104.48 12.16 104.454 13.4 104.454 14.12C104.454 20.3333 104.44 23.8267 104.414 24.6C104.36 25.8 104.267 26.4533 104.134 26.56C103.974 26.7733 103.654 26.88 103.174 26.88C102.907 26.88 102.694 26.8533 102.534 26.8C102.347 26.7467 102.2 26.6267 102.094 26.44C101.694 25.8 101.494 25.0933 101.494 24.32C101.494 21.7067 101.534 19.1867 101.614 16.76C101.667 13.72 101.694 11.44 101.694 9.92C101.694 7.14667 101.627 4.68 101.494 2.52ZM108.27 7.2C108.43 7.12 108.604 7.08 108.79 7.08C109.057 7.08 109.324 7.17333 109.59 7.36L110.11 7.72L110.19 11.24C110.27 13.6933 110.364 15.08 110.47 15.4C110.55 15.72 110.63 16.16 110.71 16.72C110.79 17.4667 111.03 18.2667 111.43 19.12C111.83 19.9467 112.27 20.5867 112.75 21.04C113.15 21.4133 113.644 21.7467 114.23 22.04C114.95 22.36 115.59 22.52 116.15 22.52C117.057 22.52 117.99 22.04 118.95 21.08C119.564 20.4667 120.03 19.8 120.35 19.08C120.67 18.28 121.004 17.1467 121.35 15.68C121.51 15.04 121.737 13.32 122.03 10.52C122.164 9.48 122.35 8.76 122.59 8.36C122.83 7.96 123.217 7.76 123.75 7.76C124.097 7.76 124.35 7.8 124.51 7.88C124.67 7.96 124.83 8.13333 124.99 8.4C125.124 8.64 125.204 9.16 125.23 9.96C125.257 10.4933 125.27 12.9733 125.27 17.4L125.23 25.88L124.79 26.24C124.55 26.4533 124.27 26.5733 123.95 26.6C123.63 26.6 123.324 26.4933 123.03 26.28C122.79 26.0667 122.59 25.7067 122.43 25.2C122.27 24.6667 122.19 24.12 122.19 23.56C122.19 22.8933 122.15 22.5467 122.07 22.52L121.95 22.6C121.87 22.6267 121.75 22.72 121.59 22.88L121.15 23.28C120.137 24.32 119.084 25.0133 117.99 25.36C117.297 25.5733 116.67 25.68 116.11 25.68C115.577 25.68 115.044 25.6 114.51 25.44C111.63 24.6133 109.604 22.6933 108.43 19.68C108.084 18.7467 107.844 17.7467 107.71 16.68C107.604 15.64 107.524 14.0533 107.47 11.92C107.47 9.86667 107.51 8.62667 107.59 8.2C107.617 7.77333 107.844 7.44 108.27 7.2ZM133.816 7.72C134.696 7.58667 135.523 7.52 136.296 7.52C137.31 7.52 138.31 7.66667 139.296 7.96C140.15 8.25333 140.91 8.66667 141.576 9.2C141.87 9.44 142.016 9.72 142.016 10.04C142.016 10.3067 141.936 10.56 141.776 10.8C141.616 11.0133 141.39 11.1733 141.096 11.28C140.936 11.3867 140.75 11.4133 140.536 11.36C140.376 11.3333 139.99 11.1733 139.376 10.88C138.79 10.64 138.336 10.4667 138.016 10.36C137.936 10.3333 137.71 10.2933 137.336 10.24C136.99 10.16 136.643 10.12 136.296 10.12C135.923 10.12 135.416 10.1733 134.776 10.28C134.51 10.3067 134.23 10.3867 133.936 10.52C133.296 10.8133 132.843 11.12 132.576 11.44C132.31 11.7867 132.176 12.28 132.176 12.92C132.176 13.48 132.27 13.8933 132.456 14.16C133.123 14.9867 134.63 15.5333 136.976 15.8C139.883 16.12 141.696 17.1333 142.416 18.84C142.63 19.3467 142.736 20.0267 142.736 20.88C142.736 21.4133 142.71 21.84 142.656 22.16C142.63 22.4 142.51 22.72 142.296 23.12C141.71 24.24 140.71 25.12 139.296 25.76C137.936 26.3733 136.63 26.68 135.376 26.68C134.123 26.68 133.163 26.5467 132.496 26.28C131.723 26.04 130.91 25.6267 130.056 25.04C128.723 24.1067 128.056 23.2 128.056 22.32C128.056 21.9467 128.19 21.64 128.456 21.4C128.696 21.16 129.03 21.04 129.456 21.04C129.696 21.04 129.91 21.0933 130.096 21.2C130.23 21.2533 130.51 21.48 130.936 21.88C132.296 23.2133 133.63 23.88 134.936 23.88C135.79 23.88 136.59 23.76 137.336 23.52C138.19 23.2 138.83 22.7867 139.256 22.28C139.523 21.9333 139.656 21.5467 139.656 21.12C139.656 20.56 139.59 20.1067 139.456 19.76C139.323 19.4933 139.043 19.2667 138.616 19.08C138.11 18.84 137.656 18.7067 137.256 18.68C135.523 18.4933 134.19 18.2667 133.256 18C132.456 17.7067 131.723 17.3067 131.056 16.8C130.336 16.2133 129.816 15.6533 129.496 15.12C129.283 14.6933 129.176 14.0267 129.176 13.12C129.176 12.4 129.243 11.7733 129.376 11.24C129.456 10.9467 129.71 10.4667 130.136 9.8C130.483 9.32 131.03 8.88 131.776 8.48C132.55 8.05333 133.23 7.8 133.816 7.72Z" fill="#091133"/>
</svg>
