<svg width="1242" height="685" viewBox="0 0 1242 685" fill="none" xmlns="http://www.w3.org/2000/svg">
<path d="M928.819 670.188C993.984 642.726 955.971 564.344 928.819 528.586L1070.48 454.21C1158.31 556.048 1012.64 640.628 928.819 670.188Z" fill="#E9F1F9"/>
<path d="M1151.94 312.609C1151.94 459.538 923.61 578.647 641.954 578.647C360.299 578.647 131.972 459.538 131.972 312.609C131.972 165.679 360.299 46.5698 641.954 46.5698C933 39 1151.94 165.679 1151.94 312.609Z" fill="#E9F1F9"/>
<path d="M914.736 660.617C958.753 625.136 940.768 554.665 914.736 524.604C401.8 660.617 110.722 441.813 110.722 305.8C110.723 107.444 348.555 50.0363 589.936 27.8602C1122.5 -6 1241.31 305.8 1046.08 441.813C1118.49 542.345 1017.68 625.136 914.736 660.617Z" stroke="black"/>
<path d="M1013.29 237.89L1241 193.818" stroke="black" stroke-dasharray="7 7"/>
<path d="M1026.61 507.375V683.665H1177.19" stroke="black" stroke-dasharray="7 7"/>
<path d="M309.967 161.681H52.418" stroke="black" stroke-dasharray="7 7"/>
<path d="M265.435 448.153H1V584.502" stroke="black" stroke-dasharray="7 7"/>
<path d="M848.02 125.872V1H1057.82" stroke="black" stroke-dasharray="7 7"/>
</svg>
